<svg width="137" height="35" viewBox="0 0 137 35" fill="none" xmlns="http://www.w3.org/2000/svg">
<path fill-rule="evenodd" clip-rule="evenodd" d="M1.82152 29.7432L1.9675 29.7823C1.91812 29.7726 1.86937 29.7595 1.82152 29.7432ZM22.6239 14.8737C23.1713 15.1998 23.512 15.6302 23.6215 16.0737L23.6458 16.2433C23.5971 16.7389 23.2443 17.2346 22.6117 17.6128L3.39082 29.3128C3.00153 29.5606 2.62441 29.665 2.29596 29.665C1.95533 29.665 1.66337 29.5476 1.42007 29.3258L1.34708 29.2476C1.02822 28.8352 0.867339 28.3084 0.896964 27.7737V4.7129C0.896964 4.00855 1.09161 3.47377 1.42007 3.14769C1.66337 2.92595 1.95533 2.80856 2.29596 2.80856C2.62441 2.80856 3.00153 2.92595 3.39082 3.16073L22.6117 14.8737H22.6239ZM2.28379 2.65204H2.4541H2.28379ZM113.96 29.2084H116.223V12.9042H113.96V29.2084ZM134.397 18.7737L131.794 25.8432H131.721L129.02 18.7737H126.575L130.626 28.6606L128.315 34.1519H130.687L136.928 18.7737H134.397ZM121.527 27.3563C120.784 27.3563 119.75 26.965 119.75 25.9737C119.75 24.7085 121.04 24.2259 122.147 24.2259C123.157 24.2259 123.619 24.4606 124.227 24.7737C124.145 25.4817 123.826 26.1336 123.329 26.6085C122.832 27.0835 122.192 27.3491 121.527 27.3563ZM121.806 18.4215C120.152 18.4215 118.461 19.2041 117.755 20.9128L119.763 21.8259C120.201 20.9128 121.003 20.6259 121.831 20.6259C123.011 20.6259 124.203 21.3693 124.227 22.7128V22.8824C123.497 22.4676 122.682 22.2525 121.855 22.2563C119.69 22.2563 117.476 23.5346 117.476 25.9215C117.476 28.1128 119.264 29.5215 121.247 29.5215C122.78 29.5215 123.619 28.778 124.154 27.9171H124.227V29.1824H126.417V22.9215C126.417 20.0389 124.398 18.4215 121.794 18.4215H121.806ZM107.768 20.7693H104.544V15.1607H107.768C109.471 15.1607 110.444 16.6737 110.444 17.965C110.444 19.2302 109.471 20.7563 107.768 20.7563V20.7693ZM107.719 12.9042H102.269V29.2084H104.544V23.0259H107.707C110.225 23.0259 112.695 21.0693 112.695 17.965C112.695 14.8607 110.225 12.9042 107.707 12.9042H107.719ZM78.0483 27.3563C76.4912 27.3563 75.1773 25.9476 75.1773 24.0172C75.1773 22.0606 76.4912 20.6259 78.0483 20.6259C79.6054 20.6259 80.822 22.0606 80.822 24.0172C80.822 25.9476 79.6054 27.3563 78.0483 27.3563ZM80.6638 19.6867H80.5787C80.2328 19.2843 79.8108 18.9656 79.3409 18.7519C78.871 18.5382 78.3639 18.4345 77.8537 18.4476C76.5145 18.5019 75.2478 19.1142 74.3232 20.1543C73.3985 21.1945 72.8888 22.5803 72.9025 24.0172C72.8922 25.4492 73.4041 26.8289 74.3291 27.862C75.254 28.8951 76.5188 29.5 77.8537 29.5476C78.3664 29.5617 78.8757 29.4559 79.3464 29.2373C79.817 29.0188 80.2375 28.6929 80.5787 28.2824H80.6638V29.078C80.6638 31.2041 79.6055 32.3389 77.9023 32.3389C77.333 32.3272 76.7799 32.1335 76.3139 31.7826C75.8479 31.4317 75.4903 30.9396 75.2868 30.3693L73.3161 31.2432C73.6874 32.2192 74.3226 33.0537 75.1399 33.6394C75.9572 34.2252 76.9193 34.5354 77.9023 34.5302C80.5665 34.5302 82.817 32.8345 82.817 28.7519V18.7867H80.6638V19.6998V19.6867ZM84.3864 29.2084H86.6612V12.9042H84.3864V29.2084ZM90.0067 23.8215C89.982 23.4181 90.0327 23.0134 90.1557 22.6312C90.2787 22.249 90.4716 21.897 90.7231 21.5958C90.9746 21.2945 91.2797 21.0501 91.6204 20.8769C91.9611 20.7036 92.3306 20.605 92.7073 20.5867C93.6197 20.5867 94.3861 21.0693 94.6294 21.7606L90.0067 23.8345V23.8215ZM97.0624 21.9824C96.6367 20.7433 95.3228 18.4607 92.6343 18.4607C89.9702 18.4607 87.7561 20.6911 87.7561 23.9911C87.7561 27.1084 89.9458 29.5476 92.8898 29.5476C95.262 29.5476 96.6367 27.9824 97.2084 27.0824L95.4445 25.8302C95.1786 26.3003 94.8034 26.6881 94.3555 26.9557C93.9076 27.2232 93.4025 27.3613 92.8898 27.3563C91.7341 27.3563 90.9069 26.7954 90.3838 25.6737L97.3057 22.6085L97.0624 21.9824ZM41.9543 20.1563V22.5041H47.1975C47.1218 23.6067 46.7019 24.6498 46.0053 25.465C45.4782 26.0409 44.8441 26.4917 44.1442 26.7883C43.4443 27.0848 42.6941 27.2206 41.9422 27.1867C41.1798 27.185 40.4253 27.0213 39.7223 26.7049C39.0193 26.3886 38.3818 25.9259 37.8467 25.3437C37.3115 24.7614 36.8894 24.0712 36.6047 23.3129C36.32 22.5546 36.1784 21.7432 36.188 20.9259C36.1737 19.7122 36.4929 18.5208 37.1058 17.5003C37.7187 16.4798 38.5982 15.6753 39.6347 15.1872C40.6711 14.699 41.8187 14.5487 42.9342 14.7551C44.0498 14.9614 45.084 15.5153 45.908 16.3476L47.453 14.6911C46.7279 13.9222 45.867 13.3162 44.9207 12.9086C43.9745 12.5009 42.9618 12.2999 41.9422 12.3172C39.8014 12.317 37.7465 13.2198 36.2214 14.8305C34.6963 16.4413 33.8235 18.6308 33.7915 20.9259C33.8235 23.2209 34.6963 25.4104 36.2214 27.0212C37.7465 28.632 39.8014 29.5348 41.9422 29.5345C44.3387 29.5345 46.1391 28.6997 47.5503 27.1215C48.8293 25.623 49.5105 23.6473 49.4481 21.6172C49.4481 21.0693 49.4116 20.5737 49.3264 20.1563H41.9422H41.9543ZM55.4211 27.3563C53.8518 27.3563 52.5015 25.9737 52.5015 23.9911C52.5015 21.9954 53.8518 20.6389 55.4211 20.6389C57.0026 20.6389 58.3408 21.9954 58.3408 23.9911C58.3408 25.9737 57.0026 27.3563 55.4211 27.3563ZM55.4211 18.4476C54.7379 18.4354 54.0593 18.5702 53.4255 18.8441C52.7917 19.118 52.2156 19.5254 51.7312 20.0423C51.2469 20.5592 50.8642 21.175 50.6058 21.8532C50.3473 22.5315 50.2184 23.2584 50.2266 23.9911C50.2168 24.7248 50.3445 25.4532 50.6022 26.1329C50.8599 26.8127 51.2423 27.4301 51.7268 27.9483C52.2113 28.4666 52.788 28.8752 53.4226 29.1499C54.0572 29.4247 54.7369 29.5599 55.4211 29.5476C56.1054 29.5599 56.7851 29.4247 57.4197 29.1499C58.0543 28.8752 58.631 28.4666 59.1155 27.9483C59.6 27.4301 59.9824 26.8127 60.2401 26.1329C60.4978 25.4532 60.6255 24.7248 60.6157 23.9911C60.6239 23.2584 60.495 22.5315 60.2365 21.8532C59.9781 21.175 59.5954 20.5592 59.111 20.0423C58.6267 19.5254 58.0506 19.118 57.4168 18.8441C56.783 18.5702 56.1044 18.4354 55.4211 18.4476ZM66.7591 27.3563C65.1776 27.3563 63.8394 25.9737 63.8394 23.9911C63.8394 21.9954 65.1776 20.6389 66.7591 20.6389C68.3162 20.6389 69.6787 21.9954 69.6787 23.9911C69.6787 25.9737 68.3162 27.3563 66.7591 27.3563ZM66.7591 18.4476C66.0758 18.4354 65.3972 18.5702 64.7634 18.8441C64.1296 19.118 63.5535 19.5254 63.0692 20.0423C62.5848 20.5592 62.2021 21.175 61.9437 21.8532C61.6852 22.5315 61.5563 23.2584 61.5645 23.9911C61.5547 24.7248 61.6824 25.4532 61.9401 26.1329C62.1978 26.8127 62.5802 27.4301 63.0647 27.9483C63.5492 28.4666 64.1259 28.8752 64.7605 29.1499C65.3951 29.4247 66.0748 29.5599 66.7591 29.5476C67.4433 29.5599 68.123 29.4247 68.7576 29.1499C69.3922 28.8752 69.9689 28.4666 70.4534 27.9483C70.9379 27.4301 71.3203 26.8127 71.578 26.1329C71.8357 25.4532 71.9635 24.7248 71.9536 23.9911C71.9618 23.2584 71.8329 22.5315 71.5744 21.8532C71.316 21.175 70.9333 20.5592 70.449 20.0423C69.9646 19.5254 69.3885 19.118 68.7547 18.8441C68.1209 18.5702 67.4423 18.4354 66.7591 18.4476Z" fill="white"/>
<path fill-rule="evenodd" clip-rule="evenodd" d="M40.4948 4.12603C40.4948 5.10428 40.2272 5.88689 39.6797 6.47384C39.0715 7.16514 38.2564 7.51732 37.271 7.51732C36.3222 7.51732 35.5071 7.16514 34.838 6.4608C34.5165 6.12104 34.2632 5.71434 34.0937 5.26571C33.9243 4.81708 33.8422 4.33601 33.8526 3.85212C33.8526 2.80864 34.1811 1.92169 34.8502 1.21734C35.5071 0.512999 36.31 0.160828 37.271 0.160828C37.7333 0.160828 38.1834 0.265174 38.6092 0.460826C39.0471 0.656477 39.3878 0.917346 39.6432 1.24343L39.0593 1.85647C38.8399 1.58093 38.5648 1.36256 38.255 1.21793C37.9451 1.0733 37.6087 1.00619 37.271 1.02169C36.5776 1.02169 35.9815 1.28256 35.4706 1.8043C34.9718 2.32604 34.7164 3.00429 34.7164 3.83907C34.7164 4.67385 34.9597 5.35211 35.4706 5.87385C35.9815 6.39558 36.5655 6.65645 37.271 6.65645C38.0009 6.65645 38.6092 6.39558 39.0958 5.87385C39.4121 5.52167 39.6067 5.05211 39.6554 4.43907H37.271V3.59125H40.4461C40.4826 3.77386 40.4948 3.95646 40.4948 4.11298" fill="white"/>
<path fill-rule="evenodd" clip-rule="evenodd" d="M40.4946 4.12602H40.3851C40.3851 5.09123 40.1175 5.82166 39.6065 6.39557C38.9983 7.06079 38.2319 7.39992 37.2708 7.39992C36.3463 7.39992 35.5677 7.06079 34.9229 6.38253C34.6075 6.0528 34.3592 5.65655 34.1938 5.21877C34.0284 4.781 33.9494 4.31121 33.9619 3.83906C33.9619 2.82167 34.2782 1.9869 34.9351 1.29559C35.2394 0.964626 35.6035 0.703697 36.0052 0.528766C36.4068 0.353834 36.8374 0.268577 37.2708 0.278208C37.7209 0.278208 38.1589 0.369511 38.5725 0.565163C38.9861 0.760814 39.3024 1.00864 39.5579 1.32168L39.643 1.24342L39.5579 1.16516L38.9861 1.7782L39.0591 1.85646L39.1442 1.79124C38.6941 1.20429 38.0494 0.904292 37.2708 0.904292C36.5409 0.904292 35.9205 1.1782 35.3974 1.72603C34.8743 2.26081 34.6066 2.9782 34.6066 3.83906C34.6066 4.69993 34.8743 5.40427 35.3974 5.9521C35.9205 6.49992 36.5531 6.77383 37.2708 6.77383C38.0251 6.77383 38.6698 6.49992 39.1807 5.9521C39.5214 5.58688 39.716 5.07819 39.7647 4.4521V4.32167H37.3925V3.70863H40.4581V3.59124L40.3486 3.61732C40.3851 3.78689 40.3973 3.95645 40.3973 4.12602H40.6162C40.6162 3.94341 40.6041 3.7608 40.5676 3.57819L40.5554 3.47385H37.1492V4.55645H39.643V4.43906H39.5214C39.4849 5.02601 39.3024 5.46949 39.0104 5.78253C38.536 6.29122 37.9642 6.53905 37.2586 6.53905C36.5896 6.53905 36.0178 6.27818 35.5312 5.78253C35.0446 5.28688 34.8013 4.64775 34.8013 3.83906C34.8013 3.03037 35.0446 2.40429 35.5312 1.88255C36.0178 1.3869 36.5896 1.13907 37.2586 1.13907C37.9886 1.13907 38.5482 1.39994 38.9618 1.93472L39.0469 2.03907L39.7038 1.32168L39.7768 1.25646L39.716 1.16516C39.4246 0.804589 39.0577 0.523016 38.6455 0.343425C38.2107 0.145425 37.7432 0.0433955 37.2708 0.0434265C36.2976 0.0434265 35.446 0.408642 34.777 1.13907C34.4422 1.4872 34.1778 1.90531 33.9999 2.3675C33.822 2.82968 33.7346 3.32611 33.7429 3.82602C33.7429 4.89558 34.0835 5.80862 34.777 6.53905C35.1023 6.8916 35.4912 7.16941 35.92 7.35554C36.3487 7.54167 36.8084 7.63221 37.2708 7.62165C38.2805 7.62165 39.1199 7.25644 39.7525 6.53905L39.6795 6.46079L39.7525 6.55209C40.3243 5.93905 40.6041 5.11732 40.6041 4.11297H40.4946V4.12602ZM45.5431 1.1782H42.5505V3.42167H45.2512V4.25645H42.5505V6.49992H45.5431V7.36078H41.7111V0.317338H45.5431V1.1782Z" fill="white"/>
<path fill-rule="evenodd" clip-rule="evenodd" d="M45.5432 1.17825V1.06086H42.4411V3.53911H45.1417V4.13911H42.4411V6.61736H45.4337V7.24344H41.8207V0.43478H45.4337V1.17825H45.5432V1.06086V1.1913H45.6527V0.199998H41.6017V7.47822H45.6527V6.38258H42.6601V4.37389H45.3607V3.30433H42.6601V1.29564H45.6527V1.17825H45.531H45.5432ZM49.0954 7.36083H48.256V1.17825H46.4313V0.317389H50.9324V1.17825H49.1076V7.36083" fill="white"/>
<path fill-rule="evenodd" clip-rule="evenodd" d="M49.0955 7.36083V7.24344H48.3656V1.06086H46.5408V0.43478H50.823V1.06086H48.9982V7.36083H49.0955V7.24344V7.37388H49.2172V1.29564H51.0419V0.199998H46.3097V1.29564H48.1466V7.47822H49.205V7.36083H49.0955ZM54.2049 7.36083H55.0564V0.317389H54.2049V7.36083Z" fill="white"/>
<path fill-rule="evenodd" clip-rule="evenodd" d="M54.2048 7.36083H54.3143V0.447823H54.9347V7.24344H54.2048V7.37388H54.3143H54.1926V7.47822H55.1658V0.199998H54.0953V7.47822H54.2048V7.36083ZM58.791 7.36083H57.9395V1.17825H56.1147V0.317389H60.6158V1.17825H58.791V7.36083Z" fill="white"/>
<path fill-rule="evenodd" clip-rule="evenodd" d="M58.7908 7.3609V7.24351H58.0609V1.06092H56.224V0.43484H60.5061V1.06092H58.6813V7.3609H58.7908V7.24351V7.37394H58.9003V1.29571H60.7251V0.200058H56.005V1.29571H57.8298V7.47829H58.9003V7.3609H58.7787H58.7908ZM64.9707 5.8609C65.4573 6.38264 66.0656 6.64351 66.759 6.64351C67.4646 6.64351 68.0607 6.38264 68.5473 5.8609C69.0339 5.33917 69.2772 4.66091 69.2772 3.83917C69.2772 3.01744 69.0339 2.35222 68.5473 1.81744C68.0607 1.29571 67.4646 1.03484 66.759 1.03484C66.0534 1.03484 65.4573 1.29571 64.9707 1.81744C64.4841 2.33918 64.2408 3.01744 64.2408 3.83917C64.2408 4.66091 64.4841 5.33917 64.9707 5.8609ZM69.1677 6.44786C68.523 7.16525 67.7201 7.51742 66.759 7.51742C65.798 7.51742 64.9951 7.16525 64.3503 6.44786C64.0333 6.10519 63.7837 5.69767 63.6165 5.24952C63.4494 4.80137 63.3679 4.32174 63.3771 3.83917C63.3673 3.35767 63.4477 2.87896 63.6136 2.43138C63.7795 1.9838 64.0275 1.57647 64.3428 1.23349C64.6582 0.890505 65.0345 0.618857 65.4495 0.434625C65.8645 0.250393 66.3098 0.157324 66.759 0.160928C67.2082 0.157324 67.6535 0.250393 68.0685 0.434625C68.4835 0.618857 68.8599 0.890505 69.1752 1.23349C69.4906 1.57647 69.7385 1.9838 69.9044 2.43138C70.0703 2.87896 70.1507 3.35767 70.1409 3.83917C70.1409 4.8696 69.8125 5.74351 69.1677 6.44786Z" fill="white"/>
<path fill-rule="evenodd" clip-rule="evenodd" d="M64.9709 5.86079L64.8979 5.93905C65.4088 6.48687 66.0292 6.77383 66.7592 6.77383C67.4891 6.77383 68.1216 6.48687 68.6204 5.93905C69.1314 5.39122 69.3868 4.68688 69.3868 3.8521C69.3868 2.99123 69.1314 2.28689 68.6204 1.73907C68.3806 1.46986 68.0915 1.25674 67.7712 1.11308C67.4509 0.969423 67.1063 0.898337 66.7592 0.904286C66.0292 0.904286 65.4088 1.19124 64.8979 1.73907C64.6445 2.01547 64.4459 2.34404 64.3142 2.70496C64.1825 3.06588 64.1203 3.45167 64.1315 3.83906C64.1315 4.68688 64.3869 5.40427 64.8979 5.93905L65.056 5.78253C64.8213 5.52711 64.6376 5.22301 64.5163 4.88883C64.3949 4.55465 64.3385 4.19743 64.3505 3.83906C64.3505 3.05645 64.5937 2.40428 65.056 1.89559C65.2763 1.65095 65.5412 1.45754 65.8342 1.3274C66.1272 1.19725 66.442 1.13314 66.7592 1.13907C67.4404 1.13907 68 1.39994 68.4623 1.89559C68.9367 2.41732 69.1679 3.04341 69.1679 3.8521C69.1679 4.63471 68.9246 5.27383 68.4623 5.78253C68 6.29122 67.4404 6.53904 66.7592 6.53904C66.442 6.54497 66.1272 6.48087 65.8342 6.35072C65.5412 6.22057 65.2763 6.02716 65.056 5.78253L64.9709 5.86079ZM69.1679 6.44774L69.0949 6.36948C68.4623 7.06078 67.6959 7.39991 66.7592 7.41295C66.3254 7.41481 65.8956 7.32349 65.4953 7.14438C65.095 6.96527 64.7322 6.70199 64.4283 6.37009C64.1244 6.03819 63.8856 5.64438 63.726 5.21192C63.5663 4.77945 63.4891 4.31708 63.4989 3.8521C63.4875 3.38603 63.5635 2.92226 63.7224 2.48827C63.8812 2.05428 64.1198 1.65891 64.4238 1.32561C64.7279 0.99231 65.0913 0.727861 65.4924 0.547941C65.8936 0.368022 66.3243 0.276296 66.7592 0.278203C67.6959 0.278203 68.4623 0.617331 69.0827 1.32168C69.7153 2.01298 70.0316 2.84776 70.0316 3.83906C70.0316 4.8434 69.7153 5.67818 69.0949 6.36948L69.253 6.53904C69.9099 5.80861 70.2506 4.89557 70.2506 3.83906C70.2603 3.34213 70.1771 2.84816 70.0057 2.38634C69.8343 1.92453 69.5783 1.50425 69.2528 1.15037C68.9272 0.796492 68.5388 0.516198 68.1105 0.326065C67.6822 0.135932 67.2227 0.0398226 66.7592 0.0434209C66.2966 0.0415709 65.8384 0.13897 65.4115 0.329884C64.9846 0.520797 64.5977 0.801365 64.2735 1.15507C63.9493 1.50876 63.6943 1.92845 63.5237 2.38939C63.3531 2.85034 63.2702 3.34324 63.2799 3.83906C63.2799 4.89557 63.6084 5.79557 64.2775 6.53904C64.9344 7.26948 65.7738 7.63469 66.7592 7.63469C67.7445 7.63469 68.5839 7.26948 69.253 6.53904L69.1679 6.44774ZM71.3333 7.36078V0.317333H72.3551L75.5424 5.79557H75.5789L75.5424 4.43905V0.317333H76.394V7.36078H75.5059L72.1605 1.62167H72.124L72.1605 2.97819V7.36078H71.3211" fill="white"/>
<path fill-rule="evenodd" clip-rule="evenodd" d="M71.3331 7.36083H71.4304V0.447823H72.282L75.4814 5.92606H75.6882L75.6517 4.43911V0.43478H76.2722V7.24344H75.5666L72.2212 1.50434H72.0144L72.0508 2.97825V7.24344H71.3209V7.37388H71.4426H71.3209V7.47822H72.2698V2.97825L72.2333 1.60869H72.1238V1.73912H72.1603V1.60869L72.0752 1.6739L75.4449 7.47822H76.4911V0.199998H75.4328V4.43911L75.4693 5.79562H75.5787V5.67823H75.5422V5.80867L75.6396 5.73041L72.4158 0.199998H71.2115V7.47822H71.3331V7.36083Z" fill="white"/>
</svg>
